HIERARCHY
ROOT hip
{
  OFFSET 0 0 0
  CHANNELS 6 Xposition Yposition Zposition Zrotation Yrotation Xrotation
  JOINT abdomen
  {
    OFFSET 0 20.6881 -0.73152
    CHANNELS 3 Zrotation Xrotation Yrotation
    JOINT chest
    {
      OFFSET 0 11.7043 -0.48768
      CHANNELS 3 Zrotation Xrotation Yrotation
      JOINT neck
      {
        OFFSET 0 22.1894 -2.19456
        CHANNELS 3 Zrotation Xrotation Yrotation
        JOINT head
        {
          OFFSET -0.24384 7.07133 1.2192
          CHANNELS 3 Zrotation Xrotation Yrotation
          JOINT leftEye
          {
            OFFSET 4.14528 8.04674 8.04672
            CHANNELS 3 Zrotation Xrotation Yrotation
            End Site
            {
              OFFSET 1 0 0
            }
          }
          JOINT rightEye
          {
            OFFSET -3.6576 8.04674 8.04672
            CHANNELS 3 Zrotation Xrotation Yrotation
            End Site
            {
              OFFSET 1 0 0
            }
          }
        }
      }
      JOINT rCollar
      {
        OFFSET -2.68224 19.2634 -4.8768
        CHANNELS 3 Zrotation Xrotation Yrotation
        JOINT rShldr
        {
          OFFSET -8.77824 -1.95073 1.46304
          CHANNELS 3 Zrotation Xrotation Yrotation
          JOINT rForeArm
          {
            OFFSET -28.1742 -1.7115 0.48768
            CHANNELS 3 Zrotation Xrotation Yrotation
            JOINT rHand
            {
              OFFSET -22.5879 0.773209 7.07136
              CHANNELS 3 Zrotation Xrotation Yrotation
              JOINT rThumb1
              {
                OFFSET -1.2192 -0.487915 3.41376
                CHANNELS 3 Zrotation Xrotation Yrotation
                JOINT rThumb2
                {
                  OFFSET -3.37035 -0.52449 3.41376
                  CHANNELS 3 Zrotation Xrotation Yrotation
                  End Site
                  {
                    OFFSET -1.78271 -1.18214 1.43049
                  }
                }
              }
              JOINT rIndex1
              {
                OFFSET -7.75947 0.938293 5.60832
                CHANNELS 3 Zrotation Xrotation Yrotation
                JOINT rIndex2
                {
                  OFFSET -2.54057 -0.884171 1.56538
                  CHANNELS 3 Zrotation Xrotation Yrotation
                  End Site
                  {
                    OFFSET -1.62519 -0.234802 1.16502
                  }
                }
              }
              JOINT rMid1
              {
                OFFSET -8.24714 1.18213 3.41376
                CHANNELS 3 Zrotation Xrotation Yrotation
                JOINT rMid2
                {
                  OFFSET -3.10165 -0.590103 1.0647
                  CHANNELS 3 Zrotation Xrotation Yrotation
                  End Site
                  {
                    OFFSET -2.48547 -0.328903 0.83742
                  }
                }
              }
              JOINT rRing1
              {
                OFFSET -8.82822 0.546677 1.51678
                CHANNELS 3 Zrotation Xrotation Yrotation
                JOINT rRing2
                {
                  OFFSET -2.60934 -0.819778 -0.0198488
                  CHANNELS 3 Zrotation Xrotation Yrotation
                  End Site
                  {
                    OFFSET -2.33842 -0.294052 0.168128
                  }
                }
              }
              JOINT rPinky1
              {
                OFFSET -8.27202 -0.0477905 -0.4584
                CHANNELS 3 Zrotation Xrotation Yrotation
                JOINT rPinky2
                {
                  OFFSET -1.82734 -0.647385 -0.700984
                  CHANNELS 3 Zrotation Xrotation Yrotation
                  End Site
                  {
                    OFFSET -1.69225 -0.51767 -0.607171
                  }
                }
              }
            }
          }
        }
      }
      JOINT lCollar
      {
        OFFSET 2.68224 19.2634 -4.8768
        CHANNELS 3 Zrotation Xrotation Yrotation
        JOINT lShldr
        {
          OFFSET 8.77824 -1.95073 1.46304
          CHANNELS 3 Zrotation Xrotation Yrotation
          JOINT lForeArm
          {
            OFFSET 28.1742 -1.7115 0.48768
            CHANNELS 3 Zrotation Xrotation Yrotation
            JOINT lHand
            {
              OFFSET 22.5879 0.773209 7.07136
              CHANNELS 3 Zrotation Xrotation Yrotation
              JOINT lThumb1
              {
                OFFSET 1.2192 -0.487915 3.41376
                CHANNELS 3 Zrotation Xrotation Yrotation
                JOINT lThumb2
                {
                  OFFSET 3.37035 -0.52449 3.41376
                  CHANNELS 3 Zrotation Xrotation Yrotation
                  End Site
                  {
                    OFFSET 1.78271 -1.18214 1.43049
                  }
                }
              }
              JOINT lIndex1
              {
                OFFSET 7.75947 0.938293 5.60832
                CHANNELS 3 Zrotation Xrotation Yrotation
                JOINT lIndex2
                {
                  OFFSET 2.54057 -0.884171 1.56538
                  CHANNELS 3 Zrotation Xrotation Yrotation
                  End Site
                  {
                    OFFSET 1.62519 -0.234802 1.16502
                  }
                }
              }
              JOINT lMid1
              {
                OFFSET 8.24714 1.18213 3.41376
                CHANNELS 3 Zrotation Xrotation Yrotation
                JOINT lMid2
                {
                  OFFSET 3.10165 -0.590103 1.0647
                  CHANNELS 3 Zrotation Xrotation Yrotation
                  End Site
                  {
                    OFFSET 2.48547 -0.328903 0.83742
                  }
                }
              }
              JOINT lRing1
              {
                OFFSET 8.82822 0.546677 1.51678
                CHANNELS 3 Zrotation Xrotation Yrotation
                JOINT lRing2
                {
                  OFFSET 2.60934 -0.819778 -0.0198488
                  CHANNELS 3 Zrotation Xrotation Yrotation
                  End Site
                  {
                    OFFSET 2.33842 -0.294052 0.168128
                  }
                }
              }
              JOINT lPinky1
              {
                OFFSET 8.27202 -0.0477905 -0.4584
                CHANNELS 3 Zrotation Xrotation Yrotation
                JOINT lPinky2
                {
                  OFFSET 1.82734 -0.647385 -0.700984
                  CHANNELS 3 Zrotation Xrotation Yrotation
                  End Site
                  {
                    OFFSET 1.69225 -0.51767 -0.607171
                  }
                }
              }
            }
          }
        }
      }
    }
  }
  JOINT rButtock
  {
    OFFSET -8.77824 4.35084 1.2192
    CHANNELS 3 Zrotation Xrotation Yrotation
    JOINT rThigh
    {
      OFFSET 0 -1.70687 -2.19456
      CHANNELS 3 Zrotation Xrotation Yrotation
      JOINT rShin
      {
        OFFSET 0 -36.8199 0.73152
        CHANNELS 3 Zrotation Xrotation Yrotation
        JOINT rFoot
        {
          OFFSET 0.73152 -45.1104 -5.12064
          CHANNELS 3 Zrotation Xrotation Yrotation
          End Site
          {
            OFFSET -1.1221 -3.69964 12.103
          }
        }
      }
    }
  }
  JOINT lButtock
  {
    OFFSET 8.77824 4.35084 1.2192
    CHANNELS 3 Zrotation Xrotation Yrotation
    JOINT lThigh
    {
      OFFSET 0 -1.70687 -2.19456
      CHANNELS 3 Zrotation Xrotation Yrotation
      JOINT lShin
      {
        OFFSET 0 -36.8199 0.73152
        CHANNELS 3 Zrotation Xrotation Yrotation
        JOINT lFoot
        {
          OFFSET -0.73152 -45.1104 -5.12064
          CHANNELS 3 Zrotation Xrotation Yrotation
          End Site
          {
            OFFSET 1.1221 -3.69964 12.103
          }
        }
      }
    }
  }
}
MOTION
Frames:	4
Frame Time:	0.03333
0.02756365528240958 35.59980314284729 0.08150534105684974 -2.8654794692993164 6.887172222137451 4.610810279846191 -2.2020082473754883 14.940225601196289 3.955000638961792 2.5677366256713867 -9.763092041015625 1.2469358444213867 -4.9814324378967285 15.436361312866211 -3.3268802165985107 8.795884132385254 -26.202228546142578 -4.855449676513672 -0.0011656269198283553 0.018107058480381966 0.006388014182448387 -0.0013131223386153579 0.012103489600121975 -0.02039746567606926 -0.022312872111797333 -0.052078977227211 -0.005834080278873444 46.68539047241211 36.20074462890625 17.376455307006836 -28.10439109802246 -32.08614730834961 62.89815139770508 -1.5450661182403564 -10.591428756713867 -1.4691451787948608 -0.02247869037091732 -0.0033730443101376295 0.0008490892359986901 -0.018127599731087685 -0.007081164047122002 0.001668252982199192 0.029873382300138474 -0.02040066570043564 -0.019347961992025375 7.76108455657959 5.470983982086182 0.42707401514053345 0.00575622171163559 0.004445325583219528 0.002302011474967003 2.9133410453796387 0.9672957062721252 0.16252417862415314 -0.002541440073400736 -0.014195440337061882 0.008703605271875858 10.277253150939941 0.7211740612983704 0.029834669083356857 -0.017298869788646698 -0.007764143869280815 -0.0027011476922780275 2.2247397899627686 -0.7131884694099426 -0.22804678976535797 0.009970166720449924 0.0015919479774311185 -0.0390591099858284 -52.60074234008789 39.226844787597656 -29.16411018371582 27.456451416015625 -30.237594604492188 -58.62433624267578 1.8565343618392944 -13.765643119812012 1.9170873165130615 0.032228365540504456 0.0014820150099694729 0.0074383714236319065 0.04317580163478851 0.029985839501023293 -0.01656305603682995 0.040437210351228714 0.019476953893899918 0.02373325265944004 -7.701216220855713 5.458744049072266 -0.4010392725467682 0.008159022778272629 -0.026010142639279366 0.018095389008522034 -2.9033708572387695 0.952004611492157 -0.09588392823934555 0.0022160399239510298 0.032361000776290894 0.028070731088519096 -10.287595748901367 0.7272713780403137 -0.008926576934754848 0.008178972639143467 -0.03829792141914368 -0.012363867834210396 -2.240323066711426 -0.7543425559997559 0.19887425005435944 -0.02312474139034748 -0.007911360822618008 -0.01622040383517742 -27.391319274902344 -38.3908576965332 -23.213186264038086 -1.6714674234390259 64.70637512207031 2.738391876220703 -4.797094345092773 -10.760053634643555 -10.346431732177734 -0.0363461971282959 -0.008474588394165039 0.017947925254702568 33.7913703918457 -38.13797378540039 26.71685791015625 1.8360129594802856 66.16410064697266 -3.0010180473327637 4.929903984069824 -10.350072860717773 13.494341850280762
0.07627443000882489 35.70629945238613 0.22100952693555365 -2.9753453731536865 6.883852481842041 4.811966419219971 -2.22104549407959 14.969388008117676 3.95190167427063 2.5704150199890137 -9.825472831726074 1.2776926755905151 -5.00930643081665 15.420088768005371 -3.1364641189575195 8.712702751159668 -26.22406768798828 -4.634188175201416 0.04286195710301399 0.07726206630468369 -0.0055662705563008785 -0.014901923015713692 0.04467622935771942 -0.032361991703510284 -0.026504140347242355 -0.06131541356444359 -0.03792678564786911 46.39138412475586 36.14598846435547 17.78484535217285 -28.156774520874023 -32.132022857666016 62.69008255004883 -1.5005229711532593 -10.536364555358887 -1.453819990158081 -0.023685017600655556 -0.024710142984986305 0.00480430293828249 0.0063229030929505825 -0.06688527017831802 -0.013410879299044609 0.025918148458003998 -0.03268273174762726 0.005307317711412907 7.777381420135498 5.490558624267578 0.36184754967689514 -0.03900403529405594 0.024411490187048912 0.02958643063902855 2.932514190673828 0.9440690279006958 0.12748973071575165 -0.000503536663018167 0.006250474601984024 -0.0013619232922792435 10.273260116577148 0.7674210071563721 0.01220131665468216 -0.0427340529859066 -0.01718810200691223 -0.031948018819093704 2.1976261138916016 -0.7164096236228943 -0.27192890644073486 0.0117723997682333 0.01813548058271408 0.006038932595402002 -52.536781311035156 38.8447380065918 -29.199474334716797 27.521514892578125 -30.25172996520996 -58.5045280456543 1.9082766771316528 -13.973438262939453 2.0791025161743164 0.016343897208571434 0.01032301876693964 0.007540761958807707 0.054501306265592575 -0.01597711816430092 -0.008280668407678604 0.05709805712103844 0.02851743809878826 0.03836892172694206 -7.716730117797852 5.449645519256592 -0.3818865120410919 0.012243200093507767 -0.06883635371923447 -0.005666560493409634 -2.913658380508423 0.9729748964309692 -0.06785518676042557 0.04634528234601021 0.024336187168955803 0.038188107311725616 -10.327378273010254 0.7169851660728455 0.024487776681780815 -0.06975384056568146 -0.013209964148700237 -0.010989142581820488 -2.255863904953003 -0.7950286865234375 0.16907480359077454 -0.03493804112076759 -0.029653338715434074 -0.06642771512269974 -27.58836555480957 -38.31985855102539 -23.30704689025879 -1.5556058883666992 64.48894500732422 2.5630857944488525 -4.647998332977295 -10.742264747619629 -10.283699035644531 -0.021651145070791245 0.01574118621647358 -0.012129387818276882 34.051326751708984 -38.15641784667969 26.840421676635742 1.8657056093215942 66.19011688232422 -3.0849618911743164 4.903449058532715 -10.294140815734863 13.442193984985352
-0.0671029800573787 39.36067605458557 -0.026075020888890594 0.6616546511650085 25.72642707824707 -2.4186928272247314 -11.173117637634277 15.394437789916992 -3.7739598751068115 6.763105392456055 -8.532544136047363 -0.23592893779277802 -7.626171112060547 16.322269439697266 -10.6446533203125 11.767065048217773 -23.413469314575195 -17.950593948364258 0.2849639654159546 -0.0100396191701293 0.18114368617534637 0.10150036960840225 0.3289925158023834 -0.10025589913129807 0.12343747913837433 -0.06807257980108261 -0.00548959756270051 58.040245056152344 17.568035125732422 -1.3822550773620605 -23.890687942504883 -20.94049644470215 47.98828125 -0.21356970071792603 3.6403791904449463 0.18169008195400238 -0.1880282610654831 -0.038806844502687454 0.1314849853515625 0.06779085099697113 -0.17612920701503754 0.06648136675357819 -0.244365856051445 -0.3964466154575348 0.017578670755028725 7.8825297355651855 5.22697114944458 0.5478614568710327 -0.14796589314937592 0.018300065770745277 -0.33208167552948 2.5313713550567627 1.0497716665267944 0.16406577825546265 0.31604865193367004 0.10513974726200104 0.26209452748298645 10.165998458862305 0.765934944152832 -0.1670001745223999 -0.02143457531929016 -0.2676607668399811 -0.1209220215678215 1.9887422323226929 -0.8353832364082336 -0.04174445569515228 -0.2026362419128418 0.07318875193595886 0.171139657497406 -63.06999588012695 50.51958084106445 -9.933866500854492 28.407190322875977 -31.44670867919922 -64.25677490234375 1.6045291423797607 -29.536571502685547 4.350121974945068 0.3082505166530609 -0.21090157330036163 -0.18024034798145294 0.29163336753845215 0.08257673680782318 0.26482656598091125 -0.0850539356470108 0.16844774782657623 -0.2934769093990326 -7.630857467651367 5.540668487548828 -0.8667303323745728 0.2818852365016937 0.23631910979747772 -0.06867539137601852 -2.7486064434051514 0.9213797450065613 -0.16623912751674652 0.09112823754549026 0.04126843437552452 -0.07225290685892105 -10.241324424743652 0.6077494621276855 0.23495598137378693 0.05595147982239723 0.01621990278363228 0.038077693432569504 -1.9955846071243286 -0.4844769239425659 0.07683862745761871 -0.025652233511209488 -0.15222874283790588 0.2188335508108139 -47.90641403198242 -59.50431823730469 -32.81584548950195 -1.0288329124450684 60.32670593261719 1.246910572052002 2.7702627182006836 5.458151340484619 11.053462028503418 0.27518561482429504 -0.08408373594284058 0.1017567366361618 9.681674003601074 2.8582911491394043 1.6577098369598389 -0.48689496517181396 37.27836227416992 -2.2262864112854004 12.50718879699707 -17.209030151367188 35.19782638549805
0.03174629237539614 39.736493553287175 -0.11896708770494495 -0.6259071230888367 20.565021514892578 -4.912479877471924 -9.13479995727539 16.173765182495117 -2.2814745903015137 6.690994739532471 -7.480232238769531 -0.45529890060424805 -6.146984100341797 16.212310791015625 -7.934683322906494 10.99907398223877 -21.681201934814453 -13.43008804321289 0.23511260747909546 0.15615525841712952 -0.09979596734046936 -0.016543684527277946 0.028672201558947563 0.3460521996021271 0.2664681375026703 -0.08724086731672287 0.052144329994916916 61.38120651245117 21.926895141601562 -6.729617118835449 -23.9315128326416 -19.19064712524414 49.764427185058594 -0.2695494294166565 -0.08185727894306183 -0.33847853541374207 0.1304922252893448 -0.006706286687403917 0.523167610168457 -0.48046761751174927 -0.16117514669895172 0.08687125891447067 -0.3389163613319397 -0.5805378556251526 -0.2695215046405792 7.82139253616333 5.062970161437988 0.5168155431747437 -0.009270194917917252 0.22775331139564514 0.47998809814453125 2.9929616451263428 0.8777999877929688 -0.005946819670498371 -0.34529903531074524 0.18422263860702515 0.4077662229537964 9.903534889221191 0.826574444770813 0.5475844740867615 0.541974663734436 0.2271711677312851 -0.013940524309873581 2.0621368885040283 -0.8831082582473755 -0.9977173805236816 -0.12901966273784637 -0.3906317949295044 -0.0614938922226429 -56.449501037597656 48.722625732421875 -18.105030059814453 28.35801124572754 -32.535213470458984 -70.90330505371094 0.6483855247497559 -31.321945190429688 4.663149356842041 -0.0729823112487793 0.13686887919902802 -0.14548704028129578 -0.09486793726682663 -0.038574084639549255 0.22669850289821625 0.1366773545742035 0.3689229488372803 0.7305070757865906 -7.540669918060303 5.702750205993652 -0.7586368322372437 0.7055370807647705 0.5752227306365967 -0.07707761228084564 -3.3018808364868164 1.0927457809448242 0.12825310230255127 0.17209605872631073 0.05460783466696739 0.029294202104210854 -10.063261985778809 0.5715026259422302 0.1145927831530571 0.09689953178167343 -0.5490851998329163 0.45953601598739624 -2.5740966796875 -0.8049534559249878 0.10434217751026154 -0.11416815221309662 0.16544458270072937 0.3399868607521057 -38.82328796386719 -54.5013542175293 -23.302188873291016 -0.28103458881378174 50.80238342285156 0.2342948466539383 1.6143505573272705 10.985527992248535 11.456750869750977 -0.44720250368118286 0.1875005066394806 0.2987956404685974 9.93999195098877 5.26709508895874 -0.19763077795505524 -0.5701242685317993 40.82079315185547 -2.3420989513397217 14.80192756652832 -17.53889274597168 37.95015335083008
